<svg width="117" height="36" viewBox="0 0 117 36" fill="none" xmlns="http://www.w3.org/2000/svg">
<path d="M11.5894 10.2321L0.751138 3.93651C0.417807 3.74289 0 3.98337 0 4.36886V21.9131C0 22.0904 0.0939044 22.2545 0.246797 22.3443L4.2968 24.7228C4.63012 24.9185 5.05 24.6782 5.05 24.2916V12.8428C5.05 12.6891 5.21605 12.5929 5.34938 12.6692L11.5961 16.2461C12.2172 16.6018 12.9809 16.5984 13.5988 16.2374L19.6991 12.6736C19.8324 12.5957 20 12.69 20 12.8445V18.4399C20 18.7877 19.8194 19.1108 19.523 19.2927L13.2385 23.1488C13.0903 23.2397 13 23.4011 13 23.575V29.2244C13 29.396 13.088 29.5555 13.233 29.6472L21.4644 34.846C22.1 35.2473 22.9069 35.2585 23.5532 34.8748L34.0208 28.6618C34.6279 28.3015 35 27.6478 35 26.9419V16.1273C35 15.7383 34.5752 15.4983 34.242 15.699L30.928 17.6954C30.3273 18.0573 29.96 18.7073 29.96 19.4086V24.829C29.96 25.0061 29.8663 25.17 29.7137 25.2599L23.5225 28.906C22.8921 29.2772 22.1094 29.2747 21.4815 28.8994L18.1504 26.9084C17.8341 26.7193 17.824 26.2647 18.1317 26.0618L24.151 22.0928C24.7122 21.7227 25.05 21.0954 25.05 20.4231V4.37394C25.05 3.98729 24.6299 3.74695 24.2966 3.9429L13.6075 10.2268C12.9851 10.5927 12.2137 10.5947 11.5894 10.2321Z" fill="#0073E6"/>
<path d="M35 4.86283V8.2767C35 8.96714 34.6439 9.60876 34.0579 9.97398L30.7645 12.0268C30.4314 12.2344 30 11.995 30 11.6025V8.0244C30 7.30757 30.3836 6.64557 31.0056 6.28915L34.2514 4.42902C34.5847 4.23799 35 4.47864 35 4.86283Z" fill="#0073E6"/>
<path d="M50.38 26V7.8H54.878L62.444 18.304L59.116 18.278L66.708 7.8H71.154V26H66.188V20.982C66.188 19.4913 66.2227 18.122 66.292 16.874C66.3613 15.6087 66.5 14.3347 66.708 13.052L67.228 14.664L61.586 21.944H59.87L54.254 14.586L54.826 13.052C55.034 14.3 55.1727 15.548 55.242 16.796C55.3113 18.044 55.346 19.4393 55.346 20.982V26H50.38ZM85.2614 26.156C83.4934 26.156 81.9248 25.8093 80.5554 25.116C79.2034 24.4227 78.1461 23.4607 77.3834 22.23C76.6381 20.9993 76.2654 19.604 76.2654 18.044V7.8H81.4654V17.888C81.4654 18.6507 81.6301 19.318 81.9594 19.89C82.2888 20.462 82.7394 20.904 83.3114 21.216C83.8834 21.528 84.5334 21.684 85.2614 21.684C86.0241 21.684 86.7001 21.528 87.2894 21.216C87.8961 20.904 88.3641 20.462 88.6934 19.89C89.0401 19.318 89.2134 18.6507 89.2134 17.888V7.8H94.2574V18.044C94.2574 19.604 93.8761 20.9993 93.1134 22.23C92.3681 23.4607 91.3194 24.4227 89.9674 25.116C88.6328 25.8093 87.0641 26.156 85.2614 26.156ZM99.6723 26V21.684H103.858V12.116H99.6723V7.8H113.166V12.116H109.006V21.684H113.166V26H99.6723Z" fill="white"/>
</svg>
