<svg fill="none" height="79" width="47" xmlns="http://www.w3.org/2000/svg" xmlns:xlink="http://www.w3.org/1999/xlink"><linearGradient id="a"><stop offset=".083" stop-color="#007fff"/><stop offset=".953" stop-color="#39f"/></linearGradient><linearGradient id="b" gradientUnits="userSpaceOnUse" x1="47" x2="-7.519" xlink:href="#a" y1="56.75" y2="14.346"/><linearGradient id="c" gradientUnits="userSpaceOnUse" x1="22.216" x2=".119" xlink:href="#a" y1="67.675" y2="67.675"/><path clip-rule="evenodd" d="m37.278 40.563a21.875 21.875 0 0 1 -12.153 3.687c-.62 0-1.432-.026-2.35-.079-8.587-1.483-12.534 2.017-15.837 7.007l-3.688 5.572v-34.375a21.875 21.875 0 1 1 34.028 18.188z" fill="url(#b)" fill-rule="evenodd"/><path d="m5.643 73.199a7.813 7.813 0 0 1 0-11.049l5.525-5.524 5.524 5.524a7.813 7.813 0 0 1 -11.049 11.05z" fill="url(#c)"/></svg>