<svg class="AnimatedLogo__SOCLogo-sc-1ujxvyr-1 hUhpHO soc-logo" xmlns="http://www.w3.org/2000/svg" xmlns:xlink="http://www.w3.org/1999/xlink" width="748.163" height="748.163" viewBox="0 0 748.163 748.163"><defs><mask id="soc-logo-shadow"><rect x="0" y="0" width="100%" height="100%" fill="white"></rect><polygon class="soc-logo__shadow" points="84.683 374.081 376.624 693.354 668.565 374.081 84.683 374.081" fill="black" fill-rule="evenodd" style="--g: 1;"></polygon></mask><mask id="soc-logo-css"><rect x="0" y="0" width="100%" height="100%" fill="black"></rect><path d="M320.17056,371.141a56.60842,56.60842,0,0,1,53.515-53.5151V371.141Z" fill="white"></path><path d="M379.56477,317.55174h53.51566a56.60868,56.60868,0,0,1-53.51533,53.515Z" fill="white"></path><path d="M320.17056,430.6122a56.60829,56.60829,0,0,1,53.515-53.51532V430.6122Z" fill="white"></path><path d="M379.56477,377.02194h53.51566a56.60915,56.60915,0,0,1-53.51533,53.51565Z" fill="white"></path><path d="M436.17146,371.141a56.60892,56.60892,0,0,1,53.515-53.5151l.00035,53.5151Z" fill="white"></path><path d="M495.567,317.55174h53.51566a56.61,56.61,0,0,1-53.51566,53.515Z" fill="white"></path><path d="M436.17146,430.6122a56.60879,56.60879,0,0,1,53.515-53.51532l.00035,53.51532Z" fill="white"></path><path d="M495.567,377.02194h53.51566A56.6105,56.6105,0,0,1,495.567,430.53759Z" fill="white"></path><path d="M198.28919,371.141a56.60888,56.60888,0,0,1,53.51523-53.5151V371.141Z" fill="white"></path><path d="M311.27493,317.55042a56.609,56.609,0,0,1-53.515,53.51566V317.55043Z" fill="white"></path><path d="M251.80442,430.53759a56.609,56.609,0,0,1-53.51523-53.51565h53.51523Z" fill="white"></path><path d="M257.75994,377.09688A56.6089,56.6089,0,0,1,311.2756,430.6122H257.75994Z" fill="white"></path></mask><symbol id="soc-logo-quarter-nw"><path d="M0,53.5151A56.60887,56.60887,0,0,1,53.51523,0V53.5151Z"></path></symbol><symbol id="soc-logo-quarter-se"><path d="M53.515,0A56.60894,56.60894,0,0,1,0,53.51565V0Z"></path></symbol><symbol id="soc-logo-quarter-sw"><path d="M53.51523,53.51565A56.609,56.609,0,0,1,0,0H53.51523Z"></path></symbol><symbol id="soc-logo-quarter-ne"><path d="M0,0A56.60888,56.60888,0,0,1,53.51565,53.51532H0Z"></path></symbol><clipPath id="soc-logo-c1-tl"><rect width="53.5151" height="53.5151" x="198.28919" y="317.6259"></rect></clipPath><clipPath id="soc-logo-c1-tr"><rect width="53.5151" height="53.5151" x="257.76" y="317.6259"></rect></clipPath><clipPath id="soc-logo-c1-bl"><rect width="53.5151" height="53.5151" x="198.28919" y="377.09688"></rect></clipPath><clipPath id="soc-logo-c1-br"><rect width="53.5151" height="53.5151" x="257.76" y="377.09688"></rect></clipPath><clipPath id="soc-logo-s1-tl"><rect width="53.5151" height="53.5151" x="320.17056" y="317.6259"></rect></clipPath><clipPath id="soc-logo-s1-tr"><rect width="53.5151" height="53.5151" x="379.56477" y="317.6259"></rect></clipPath><clipPath id="soc-logo-s1-bl"><rect width="53.5151" height="53.5151" x="320.17056" y="377.09688"></rect></clipPath><clipPath id="soc-logo-s1-br"><rect width="53.5151" height="53.5151" x="379.56477" y="377.09688"></rect></clipPath><clipPath id="soc-logo-s2-tl"><rect width="53.5151" height="53.5151" x="436.17146" y="317.6259"></rect></clipPath><clipPath id="soc-logo-s2-tr"><rect width="53.5151" height="53.5151" x="495.567" y="317.6259"></rect></clipPath><clipPath id="soc-logo-s2-bl"><rect width="53.5151" height="53.5151" x="436.17146" y="377.09688"></rect></clipPath><clipPath id="soc-logo-s2-br"><rect width="53.5151" height="53.5151" x="495.567" y="377.09688"></rect></clipPath><linearGradient id="grad-lines" x1="41.93171" y1="373.9864" x2="712.54154" y2="373.9864" gradientUnits="userSpaceOnUse"><stop offset="0" stop-color="#DC7B21"></stop><stop offset="0.45611" stop-color="#DEB31A"></stop><stop offset="1" stop-color="#3398ca"></stop></linearGradient><linearGradient id="grad-frame-outer" x1="0%" y1="0" x2="100%" y2="0" gradientUnits="objectBoundingBox"><stop offset="0" stop-color="#EFCB86"></stop><stop offset="0.3333" stop-color="#DE9B1A"></stop><stop offset="0.6667" stop-color="#99610c"></stop><stop offset="1" stop-color="#74460a"></stop></linearGradient><linearGradient id="grad-frame-center" x1="0%" y1="0" x2="133%" y2="0" xlink:href="#grad-frame-outer"></linearGradient><linearGradient id="grad-frame-inner" x1="0%" y1="0" x2="200%" y2="0" xlink:href="#grad-frame-outer"></linearGradient><linearGradient id="grad-letter" x1="0%" y1="0" x2="100%" y2="0" gradientUnits="objectBoundingBox"><stop offset="0" stop-color="#bbb2a4"></stop><stop offset="0.16667" stop-color="#ded5c6"></stop><stop offset="0.33333" stop-color="#f1e8d8"></stop><stop offset="0.5" stop-color="#f6edde"></stop><stop offset="0.66667" stop-color="#f1e8d8"></stop><stop offset="0.83333" stop-color="#ded5c6"></stop><stop offset="1" stop-color="#bbb2a4"></stop></linearGradient></defs><g class="soc-logo__lines" mask="url(#soc-logo-shadow)" style="--count: 8;"><rect x="263.49012" y="95.55474" width="227.49301" height="14.8365" fill="url(#grad-lines)" style="--i: 0;"></rect><rect x="204.14411" y="153.41709" width="346.18502" height="19.782" fill="url(#grad-lines)" style="--i: 1;"></rect><rect x="160.12916" y="216.22494" width="434.21492" height="24.7275" fill="url(#grad-lines)" style="--i: 2;"></rect><rect x="78.52841" y="283.9783" width="597.41643" height="29.673" fill="url(#grad-lines)" style="--i: 3;"></rect><rect x="41.93171" y="356.67715" width="670.60983" height="34.6185" fill="url(#grad-lines)" style="--i: 4;"></rect><rect x="78.52841" y="434.81606" width="597.91098" height="28.6839" fill="url(#grad-lines)" style="--i: 5;"></rect><rect x="160.12916" y="507.02036" width="434.21492" height="24.7275" fill="url(#grad-lines)" style="--i: 6;"></rect><rect x="204.14411" y="574.77371" width="346.18502" height="19.782" fill="url(#grad-lines)" style="--i: 7;"></rect><rect x="264.47922" y="637.58156" width="226.50391" height="14.8365" fill="url(#grad-lines)" style="--i: 8;"></rect></g><g class="soc-logo__diamond"><polygon points="374.081 82.14 82.14 374.081 374.081 666.022 666.022 374.081 374.081 82.14" fill="url(#grad-frame-outer)" style="--g: 0;"></polygon><polygon points="376.624 154.721 84.683 374.081 376.624 593.442 668.565 374.081 376.624 154.721" fill="url(#grad-frame-center)" style="--g: 1;"></polygon><polygon points="376.624 228.23 84.683 374.081 376.624 519.933 668.565 374.081 376.624 228.23" fill="url(#grad-frame-inner)" style="--g: 2;"></polygon></g><g class="soc-logo__stateof soc-logo__text"><path d="M228.964,20.64932c5.457,0,8.26172,3.26367,8.26172,8.97558V30.746H231.922V29.26748c0-2.5498-1.01953-3.51855-2.80469-3.51855s-2.80469.96875-2.80469,3.51855c0,7.34375,10.96387,8.72071,10.96387,18.919,0,5.71191-2.85547,8.97558-8.36328,8.97558-5.50684,0-8.36328-3.26367-8.36328-8.97558V45.994h5.30371v2.54981c0,2.5498,1.12207,3.46777,2.90722,3.46777,1.78418,0,2.90625-.918,2.90625-3.46777,0-7.34375-10.96386-8.7207-10.96386-18.91895C220.70324,23.913,223.50792,20.64932,228.964,20.64932Z" style="--t: 0;"></path><path d="M264.49718,21.05752h17.33789v5.09961h-5.86426V56.75381h-5.60937V26.15713h-5.86426Z" style="--t: 1;"></path><path d="M326.00988,56.75381h-5.66016l-.96875-6.47656h-6.88476l-.96875,6.47656h-5.1504L312.089,21.05752h8.21ZM313.21007,45.43252h5.40625L315.9132,27.38076Z" style="--t: 2;"></path><path d="M350.55382,21.05752h17.33789v5.09961h-5.86425V56.75381h-5.60938V26.15713h-5.86426Z" style="--t: 3;"></path><path d="M401.28722,36.10049h7.7002V41.2001h-7.7002V51.6542h9.68848v5.09961H395.67785V21.05752H410.9757v5.09961h-9.68848Z" style="--t: 4;"></path><path d="M472.89171,29.6249c0-5.71191,3.00782-8.97558,8.51563-8.97558s8.5166,3.26367,8.5166,8.97558V48.18643c0,5.71191-3.00879,8.97558-8.5166,8.97558s-8.51563-3.26367-8.51563-8.97558Zm5.60938,18.919c0,2.5498,1.12109,3.51855,2.90625,3.51855s2.90722-.96875,2.90722-3.51855V29.26748c0-2.5498-1.12207-3.51855-2.90722-3.51855s-2.90625.96875-2.90625,3.51855Z" style="--t: 5;"></path><path d="M523.97667,36.9169h7.24121v5.09961h-7.24121v14.7373H518.3673V21.05752h14.83984v5.09961h-9.23047Z" style="--t: 6;"></path></g><g class="soc-logo__css"><g style="--g: 1;"><g clip-path="url(#soc-logo-c1-tl)" style="--a: -270deg; --i: 1;"><g class="soc-logo__quarter soc-logo__quarter--ghost" data-curve="nw"><use xlink:href="#soc-logo-quarter-nw" x="198.28919" y="317.6259"></use></g><g class="soc-logo__quarter soc-logo__quarter--grad" data-curve="nw"><use xlink:href="#soc-logo-quarter-nw" x="198.28919" y="317.6259"></use></g></g><g clip-path="url(#soc-logo-c1-tr)" style="--a: 120deg; --i: 2;"><g class="soc-logo__quarter soc-logo__quarter--ghost" data-curve="se"><use xlink:href="#soc-logo-quarter-se" x="257.76" y="317.6259"></use></g><g class="soc-logo__quarter soc-logo__quarter--grad" data-curve="se"><use xlink:href="#soc-logo-quarter-se" x="257.76" y="317.6259"></use></g></g><g clip-path="url(#soc-logo-c1-bl)" style="--a: 150deg; --i: 3;"><g class="soc-logo__quarter soc-logo__quarter--ghost" data-curve="sw"><use xlink:href="#soc-logo-quarter-sw" x="198.28919" y="377.09688"></use></g><g class="soc-logo__quarter soc-logo__quarter--grad" data-curve="sw"><use xlink:href="#soc-logo-quarter-sw" x="198.28919" y="377.09688"></use></g></g><g clip-path="url(#soc-logo-c1-br)" style="--a: 270deg; --i: 4;"><g class="soc-logo__quarter soc-logo__quarter--ghost" data-curve="ne"><use xlink:href="#soc-logo-quarter-ne" x="257.76" y="377.09688"></use></g><g class="soc-logo__quarter soc-logo__quarter--grad" data-curve="ne"><use xlink:href="#soc-logo-quarter-ne" x="257.76" y="377.09688"></use></g></g></g><g style="--g: 2;"><g clip-path="url(#soc-logo-s1-tl)" style="--a: -270deg; --i: 1;"><g class="soc-logo__quarter soc-logo__quarter--ghost" data-curve="nw"><use xlink:href="#soc-logo-quarter-nw" x="320.17056" y="317.6259"></use></g><g class="soc-logo__quarter soc-logo__quarter--grad" data-curve="nw"><use xlink:href="#soc-logo-quarter-nw" x="320.17056" y="317.6259"></use></g></g><g clip-path="url(#soc-logo-s1-tr)" style="--a: 120deg; --i: 2;"><g class="soc-logo__quarter soc-logo__quarter--ghost" data-curve="se"><use xlink:href="#soc-logo-quarter-se" x="379.56477" y="317.6259"></use></g><g class="soc-logo__quarter soc-logo__quarter--grad" data-curve="se"><use xlink:href="#soc-logo-quarter-se" x="379.56477" y="317.6259"></use></g></g><g clip-path="url(#soc-logo-s1-bl)" style="--a: -120deg; --i: 3;"><g class="soc-logo__quarter soc-logo__quarter--ghost" data-curve="nw"><use xlink:href="#soc-logo-quarter-nw" x="320.17056" y="377.09688"></use></g><g class="soc-logo__quarter soc-logo__quarter--grad" data-curve="nw"><use xlink:href="#soc-logo-quarter-nw" x="320.17056" y="377.09688"></use></g></g><g clip-path="url(#soc-logo-s1-br)" style="--a: 135deg; --i: 4;"><g class="soc-logo__quarter soc-logo__quarter--ghost" data-curve="se"><use xlink:href="#soc-logo-quarter-se" x="379.56477" y="377.09688"></use></g><g class="soc-logo__quarter soc-logo__quarter--grad" data-curve="se"><use xlink:href="#soc-logo-quarter-se" x="379.56477" y="377.09688"></use></g></g></g><g style="--g: 3;"><g clip-path="url(#soc-logo-s2-tl)" style="--a: -135deg; --i: 1;"><g class="soc-logo__quarter soc-logo__quarter--ghost" data-curve="nw"><use xlink:href="#soc-logo-quarter-nw" x="436.17146" y="317.6259"></use></g><g class="soc-logo__quarter soc-logo__quarter--grad" data-curve="nw"><use xlink:href="#soc-logo-quarter-nw" x="436.17146" y="317.6259"></use></g></g><g clip-path="url(#soc-logo-s2-tr)" style="--a: 270deg; --i: 2;"><g class="soc-logo__quarter soc-logo__quarter--ghost" data-curve="se"><use xlink:href="#soc-logo-quarter-se" x="495.567" y="317.6259"></use></g><g class="soc-logo__quarter soc-logo__quarter--grad" data-curve="se"><use xlink:href="#soc-logo-quarter-se" x="495.567" y="317.6259"></use></g></g><g clip-path="url(#soc-logo-s2-bl)" style="--a: 180deg; --i: 3;"><g class="soc-logo__quarter soc-logo__quarter--ghost" data-curve="nw"><use xlink:href="#soc-logo-quarter-nw" x="436.17146" y="377.09688"></use></g><g class="soc-logo__quarter soc-logo__quarter--grad" data-curve="nw"><use xlink:href="#soc-logo-quarter-nw" x="436.17146" y="377.09688"></use></g></g><g clip-path="url(#soc-logo-s2-br)" style="--a: -180deg; --i: 4;"><g class="soc-logo__quarter soc-logo__quarter--ghost" data-curve="se"><use xlink:href="#soc-logo-quarter-se" x="495.567" y="377.09688"></use></g><g class="soc-logo__quarter soc-logo__quarter--grad" data-curve="se"><use xlink:href="#soc-logo-quarter-se" x="495.567" y="377.09688"></use></g></g></g></g><g class="soc-logo__year soc-logo__text"><path d="M310.13,691.04287c-1.78515,0-2.90722.96875-2.90722,3.51856v3.82422H301.92v-3.4668c0-5.71191,2.85547-8.97559,8.36231-8.97559,5.50781,0,8.36328,3.26368,8.36328,8.97559,0,11.21875-11.168,15.40039-11.168,21.26465a3.801,3.801,0,0,0,.05176.76465h10.60644v5.09961H301.92V717.662c0-10.50488,11.11621-12.23828,11.11621-22.54C313.03624,691.91006,311.91417,691.04287,310.13,691.04287Z" style="--t: 0;"></path><path d="M346.69738,694.91885c0-5.71191,3.00879-8.97559,8.5166-8.97559,5.50683,0,8.51562,3.26368,8.51562,8.97559v18.56152c0,5.71192-3.00879,8.97559-8.51562,8.97559-5.50781,0-8.5166-3.26367-8.5166-8.97559Zm5.60937,18.91894c0,2.54981,1.12207,3.51856,2.90723,3.51856,1.78418,0,2.90625-.96875,2.90625-3.51856V694.56143c0-2.54981-1.12207-3.51856-2.90625-3.51856-1.78516,0-2.90723.96875-2.90723,3.51856Z" style="--t: 1;"></path><path d="M400.27648,691.04287c-1.78418,0-2.90625.96875-2.90625,3.51856v3.82422h-5.30371v-3.4668c0-5.71191,2.85547-8.97559,8.36328-8.97559s8.36328,3.26368,8.36328,8.97559c0,11.21875-11.168,15.40039-11.168,21.26465a3.873,3.873,0,0,0,.05078.76465h10.60742v5.09961H392.06652V717.662c0-10.50488,11.11719-12.23828,11.11719-22.54C403.18371,691.91006,402.06163,691.04287,400.27648,691.04287Z" style="--t: 2;"></path><path d="M 443.8339 722.592 C 441.069 722.592 438.9698 721.824 437.5362 720.288 C 436.1368 718.752 435.437 716.5504 435.437 713.6832 V 710.7648 H 440.7618 V 713.9392 C 440.7618 716.2944 441.7347 717.472 443.6803 717.472 C 444.636 717.472 445.3528 717.1819 445.8307 716.6016 C 446.3427 715.9872 446.5987 714.9291 446.5987 713.4272 V 710.5088 C 446.5987 708.8704 446.3085 707.7099 445.7283 707.0272 C 445.148 706.3104 444.2093 705.952 442.9123 705.952 H 441.0178 V 700.832 H 443.0659 C 444.1923 700.832 445.0285 700.5419 445.5747 699.9616 C 446.1549 699.3813 446.4451 698.4085 446.4451 697.0432 V 694.432 C 446.4451 693.2032 446.1891 692.2987 445.6771 691.7184 C 445.1651 691.1381 444.4824 690.848 443.6291 690.848 C 441.82 690.848 440.9154 691.9573 440.9154 694.176 V 696.5312 H 435.5906 V 694.6368 C 435.5906 691.7696 436.2904 689.568 437.6898 688.032 C 439.1234 686.496 441.1714 685.728 443.8339 685.728 C 446.5304 685.728 448.5784 686.496 449.9779 688.032 C 451.3773 689.5339 452.0771 691.7184 452.0771 694.5856 V 695.8656 C 452.0771 697.8112 451.7528 699.3813 451.1043 700.576 C 450.4557 701.7365 449.4488 702.5728 448.0835 703.0848 V 703.1872 C 449.5512 703.7333 450.6093 704.6208 451.2579 705.8496 C 451.9064 707.0784 452.2307 708.6485 452.2307 710.56 V 713.7344 C 452.2307 716.6016 451.5139 718.8032 450.0803 720.3392 C 448.6808 721.8411 446.5987 722.592 443.8339 722.592 Z" style="--t: 3;"></path></g></svg>